<svg xmlns="http://www.w3.org/2000/svg" width="1200" height="630" viewBox="0 0 1200 630" role="img" aria-labelledby="title">
  <title id="title">CurvatureTech</title>
  <defs>
    <linearGradient id="background" x1="70" y1="30" x2="1130" y2="600" gradientUnits="userSpaceOnUse">
      <stop stop-color="#111D32" />
      <stop offset="0.5" stop-color="#090F1B" />
      <stop offset="1" stop-color="#080B13" />
    </linearGradient>
    <linearGradient id="mark" x1="0" y1="0" x2="1" y2="1">
      <stop stop-color="#76C8FF" />
      <stop offset="0.52" stop-color="#8C85FF" />
      <stop offset="1" stop-color="#D18AFF" />
    </linearGradient>
    <linearGradient id="line" x1="700" y1="112" x2="1090" y2="510" gradientUnits="userSpaceOnUse">
      <stop stop-color="#69C7FF" />
      <stop offset="0.48" stop-color="#8F87FF" />
      <stop offset="1" stop-color="#FFAE62" />
    </linearGradient>
    <radialGradient id="blue-glow" cx="0" cy="0" r="1" gradientTransform="translate(906 268) rotate(90) scale(310)">
      <stop stop-color="#307DFF" stop-opacity="0.3" />
      <stop offset="1" stop-color="#307DFF" stop-opacity="0" />
    </radialGradient>
    <radialGradient id="violet-glow" cx="0" cy="0" r="1" gradientTransform="translate(330 650) rotate(-48) scale(360 440)">
      <stop stop-color="#8A5CFF" stop-opacity="0.22" />
      <stop offset="1" stop-color="#8A5CFF" stop-opacity="0" />
    </radialGradient>
    <pattern id="grid" width="48" height="48" patternUnits="userSpaceOnUse">
      <path d="M48 0H0V48" fill="none" stroke="#FFFFFF" stroke-opacity="0.045" />
    </pattern>
    <filter id="soft-shadow" x="-30%" y="-30%" width="160%" height="160%">
      <feDropShadow dx="0" dy="24" stdDeviation="28" flood-color="#000000" flood-opacity="0.36" />
    </filter>
  </defs>

  <rect width="1200" height="630" fill="url(#background)" />
  <rect width="1200" height="630" fill="url(#grid)" />
  <rect width="1200" height="630" fill="url(#blue-glow)" />
  <rect width="1200" height="630" fill="url(#violet-glow)" />

  <g transform="translate(82 78)">
    <rect width="68" height="68" rx="19" fill="#FFFFFF" fill-opacity="0.075" />
    <rect x="0.5" y="0.5" width="67" height="67" rx="18.5" fill="none" stroke="#FFFFFF" stroke-opacity="0.17" />
    <path d="M50 19A20 20 0 1 0 50 49" fill="none" stroke="url(#mark)" stroke-width="8" stroke-linecap="round" />
    <circle cx="52" cy="16" r="3.2" fill="#FFB460" />
  </g>

  <g fill="#F7F9FD" font-family="Inter, ui-sans-serif, system-ui, -apple-system, BlinkMacSystemFont, 'Segoe UI', sans-serif">
    <text x="82" y="287" font-size="82" font-weight="720" letter-spacing="-3.8">Curvature</text>
    <text x="88" y="340" font-size="25" font-weight="650" letter-spacing="10">TECH</text>
  </g>

  <path d="M84 408H510" stroke="#FFFFFF" stroke-opacity="0.13" />
  <g transform="translate(84 440)">
    <rect width="88" height="10" rx="5" fill="#77C5FF" />
    <rect x="103" width="61" height="10" rx="5" fill="#8F87FF" />
    <rect x="179" width="42" height="10" rx="5" fill="#D28BFF" />
    <circle cx="248" cy="5" r="5" fill="#FFB460" />
  </g>

  <g filter="url(#soft-shadow)">
    <rect x="685" y="70" width="430" height="490" rx="52" fill="#FFFFFF" fill-opacity="0.055" />
    <rect x="685.75" y="70.75" width="428.5" height="488.5" rx="51.25" fill="none" stroke="#FFFFFF" stroke-opacity="0.16" stroke-width="1.5" />
  </g>

  <g opacity="0.86">
    <path d="M736 168 816 214 900 163 986 215 1065 169" fill="none" stroke="url(#line)" stroke-width="2" />
    <path d="M736 462 816 416 900 467 986 415 1065 461" fill="none" stroke="url(#line)" stroke-width="2" />
    <path d="M816 214v202M986 215v200" fill="none" stroke="#FFFFFF" stroke-opacity="0.13" stroke-dasharray="6 9" />
    <circle cx="736" cy="168" r="8" fill="#74C7FF" />
    <circle cx="816" cy="214" r="7" fill="#7BB5FF" />
    <circle cx="900" cy="163" r="8" fill="#9288FF" />
    <circle cx="986" cy="215" r="7" fill="#B087FF" />
    <circle cx="1065" cy="169" r="8" fill="#FFB060" />
    <circle cx="736" cy="462" r="8" fill="#74C7FF" />
    <circle cx="816" cy="416" r="7" fill="#7BB5FF" />
    <circle cx="900" cy="467" r="8" fill="#9288FF" />
    <circle cx="986" cy="415" r="7" fill="#B087FF" />
    <circle cx="1065" cy="461" r="8" fill="#FFB060" />
  </g>

  <g transform="translate(900 315)">
    <circle r="119" fill="#0B1220" fill-opacity="0.9" stroke="#FFFFFF" stroke-opacity="0.08" />
    <circle r="94" fill="none" stroke="url(#line)" stroke-width="2.2" stroke-dasharray="2 9" stroke-linecap="round" />
    <circle r="72" fill="#FFFFFF" fill-opacity="0.055" stroke="#FFFFFF" stroke-opacity="0.12" />
    <path d="M43-43A62 62 0 1 0 43 43" fill="none" stroke="url(#mark)" stroke-width="19" stroke-linecap="round" />
    <circle cx="51" cy="-51" r="7" fill="#FFB460" />
  </g>

  <rect x="24" y="24" width="1152" height="582" rx="28" fill="none" stroke="#FFFFFF" stroke-opacity="0.075" />
</svg>
